<?xml version="1.0" encoding="UTF-8" standalone="no"?><!DOCTYPE svg PUBLIC "-//W3C//DTD SVG 1.1//EN" "http://www.w3.org/Graphics/SVG/1.1/DTD/svg11.dtd"><svg width="100%" height="100%" viewBox="0 0 996 1025" version="1.1" xmlns="http://www.w3.org/2000/svg" xmlns:xlink="http://www.w3.org/1999/xlink" xml:space="preserve" xmlns:serif="http://www.serif.com/" style="fill-rule:evenodd;clip-rule:evenodd;stroke-linejoin:round;stroke-miterlimit:2;"><g><path d="M0,0l0,1021.84l634.629,0c198.296,0 359.042,-160.75 359.042,-359.049l0,-662.788l-993.671,0Z" style="fill:#be0f34;fill-rule:nonzero;"/><g><path d="M138.542,374.896l0,53.921c0,18.108 7.545,26.479 18.933,26.479c12.213,0 19.483,-8.371 19.483,-26.479l0,-53.921l16.875,0l0,52.821c0,28.542 -14.679,41.163 -36.908,41.163c-21.4,0 -35.258,-11.938 -35.258,-41.025l0,-52.959l16.875,0Z" style="fill:#fff;fill-rule:nonzero;"/><path d="M213.175,420.446c0,-7.679 -0.137,-14.129 -0.546,-19.891l14.817,0l0.821,10.016l0.412,0c2.879,-5.216 10.154,-11.525 21.267,-11.525c11.662,0 23.737,7.546 23.737,28.671l0,39.654l-16.875,0l0,-37.733c0,-9.6 -3.566,-16.871 -12.762,-16.871c-6.721,0 -11.388,4.8 -13.171,9.875c-0.546,1.508 -0.687,3.567 -0.687,5.488l0,39.241l-17.013,0l0,-46.925Z" style="fill:#fff;fill-rule:nonzero;"/><path d="M292.337,467.371l0,-66.816l17.013,0l0,66.816l-17.013,0Zm17.976,-85.479c0,5.079 -3.705,9.059 -9.605,9.059c-5.625,0 -9.329,-3.98 -9.329,-9.059c0,-5.212 3.842,-9.191 9.467,-9.191c5.762,0 9.329,3.979 9.467,9.191Z" style="fill:#fff;fill-rule:nonzero;"/><path d="M338.85,400.555l10.842,33.887c1.921,5.9 3.291,11.25 4.525,16.738l0.412,0c1.234,-5.488 2.746,-10.705 4.529,-16.738l10.563,-33.887l17.837,0l-25.52,66.816l-16.6,0l-24.834,-66.816l18.246,0Z" style="fill:#fff;fill-rule:nonzero;"/><path d="M438.05,426.896c0.138,-6.175 -2.608,-16.325 -13.862,-16.325c-10.425,0 -14.817,9.467 -15.5,16.325l29.362,0Zm-29.362,11.8c0.408,12.071 9.874,17.288 20.583,17.288c7.817,0 13.442,-1.1 18.521,-3.021l2.466,11.662c-5.762,2.334 -13.716,4.117 -23.321,4.117c-21.683,0 -34.441,-13.308 -34.441,-33.75c0,-18.521 11.25,-35.946 32.654,-35.946c21.679,0 28.812,17.834 28.812,32.513c0,3.158 -0.275,5.625 -0.545,7.137l-44.729,0Z" style="fill:#fff;fill-rule:nonzero;"/><path d="M468.233,422.096c0,-9.058 -0.137,-15.504 -0.55,-21.541l14.68,0l0.549,12.758l0.546,0c3.296,-9.467 11.117,-14.267 18.25,-14.267c1.646,0 2.609,0.138 3.98,0.409l0,15.916c-1.371,-0.275 -2.88,-0.55 -4.938,-0.55c-8.096,0 -13.583,5.217 -15.096,12.759c-0.271,1.512 -0.546,3.295 -0.546,5.216l0,34.575l-16.875,0l0,-45.275Z" style="fill:#fff;fill-rule:nonzero;"/><path d="M516.937,451.867c3.842,2.329 11.113,4.8 17.146,4.8c7.413,0 10.705,-3.017 10.705,-7.408c0,-4.529 -2.742,-6.863 -10.975,-9.742c-13.034,-4.525 -18.521,-11.662 -18.388,-19.479c0,-11.8 9.746,-20.992 25.246,-20.992c7.412,0 13.862,1.917 17.704,3.98l-3.3,11.933c-2.879,-1.646 -8.229,-3.842 -14.129,-3.842c-6.033,0 -9.325,2.884 -9.325,7c0,4.254 3.15,6.309 11.658,9.329c12.075,4.388 17.7,10.563 17.838,20.442c0,12.071 -9.471,20.854 -27.167,20.854c-8.096,0 -15.367,-1.921 -20.304,-4.667l3.291,-12.208Z" style="fill:#fff;fill-rule:nonzero;"/><path d="M575.654,467.371l0,-66.816l17.017,0l0,66.816l-17.017,0Zm17.975,-85.479c0,5.079 -3.704,9.059 -9.604,9.059c-5.625,0 -9.333,-3.98 -9.333,-9.059c0,-5.212 3.845,-9.191 9.471,-9.191c5.762,0 9.329,3.979 9.466,9.191Z" style="fill:#fff;fill-rule:nonzero;"/><path d="M630.812,381.484l0,19.071l16.055,0l0,12.621l-16.055,0l0,29.495c0,8.096 2.196,12.35 8.642,12.35c2.884,0 5.079,-0.412 6.592,-0.825l0.271,12.9c-2.471,0.959 -6.863,1.646 -12.213,1.646c-6.171,0 -11.387,-2.058 -14.541,-5.487c-3.567,-3.842 -5.213,-9.879 -5.213,-18.663l0,-31.416l-9.608,0l0,-12.621l9.608,0l0,-15.092l16.462,-3.979Z" style="fill:#fff;fill-rule:nonzero;"/><path d="M671.833,400.555l12.071,35.808c1.375,4.112 2.746,9.192 3.704,13.033l0.417,0c1.092,-3.841 2.329,-8.779 3.562,-13.17l10.43,-35.671l18.112,0l-16.742,45.55c-9.191,24.971 -15.362,36.083 -23.32,42.941c-6.588,5.9 -13.45,8.096 -17.7,8.646l-3.842,-14.271c2.879,-0.683 6.446,-2.196 9.879,-4.666c3.154,-2.055 6.858,-6.034 9.192,-10.563c0.687,-1.233 1.096,-2.196 1.096,-3.016c0,-0.688 -0.138,-1.646 -0.959,-3.292l-24.421,-61.329l18.521,0Z" style="fill:#fff;fill-rule:nonzero;"/><path d="M772.808,434.03c0,12.895 6.313,22.637 16.604,22.637c9.605,0 16.33,-9.466 16.33,-22.912c0,-10.425 -4.663,-22.363 -16.192,-22.363c-11.933,0 -16.742,11.525 -16.742,22.638Zm50.355,-0.688c0,24.563 -17.284,35.538 -34.296,35.538c-18.938,0 -33.48,-13.038 -33.48,-34.438c0,-21.95 14.409,-35.396 34.575,-35.396c19.896,0 33.201,13.992 33.201,34.296Z" style="fill:#fff;fill-rule:nonzero;"/><path d="M839.625,467.371l0,-54.195l-9.054,0l0,-12.621l9.054,0l0,-2.884c0,-8.641 2.333,-17.283 8.096,-22.775c4.937,-4.662 11.662,-6.446 17.425,-6.446c4.525,0 8.096,0.684 10.837,1.646l-1.233,13.034c-1.788,-0.688 -4.117,-1.238 -7.137,-1.238c-8.371,0 -11.25,7 -11.25,15.234l0,3.429l14.683,0l0,12.621l-14.546,0l0,54.195l-16.875,0Z" style="fill:#fff;fill-rule:nonzero;"/><path d="M121.392,591.905c5.487,3.15 13.721,5.9 22.362,5.9c10.842,0 16.879,-5.079 16.879,-12.63c0,-6.991 -4.666,-11.112 -16.466,-15.362c-15.229,-5.488 -24.971,-13.583 -24.971,-26.892c0,-15.091 12.621,-26.616 32.654,-26.616c10.017,0 17.425,2.195 22.229,4.662l-4.117,13.583c-3.295,-1.783 -9.741,-4.391 -18.387,-4.391c-10.7,0 -15.367,5.766 -15.367,11.117c0,7.137 5.35,10.425 17.7,15.229c16.054,6.037 23.875,14.133 23.875,27.441c0,14.821 -11.25,27.709 -35.125,27.709c-9.741,0 -19.895,-2.742 -24.971,-5.759l3.705,-13.991Z" style="fill:#fff;fill-rule:nonzero;"/><path d="M207,576.946c0,12.9 6.313,22.642 16.604,22.642c9.6,0 16.325,-9.471 16.325,-22.917c0,-10.425 -4.662,-22.358 -16.187,-22.358c-11.938,0 -16.742,11.521 -16.742,22.633Zm50.354,-0.683c0,24.554 -17.287,35.533 -34.3,35.533c-18.933,0 -33.479,-13.029 -33.479,-34.437c0,-21.954 14.408,-35.4 34.579,-35.4c19.892,0 33.2,13.996 33.2,34.304Z" style="fill:#fff;fill-rule:nonzero;"/><path d="M331.717,590.255c0,7.958 0.275,14.541 0.545,20.033l-14.816,0l-0.821,-10.154l-0.275,0c-2.883,4.8 -9.467,11.662 -21.404,11.662c-12.213,0 -23.325,-7.27 -23.325,-29.087l0,-39.233l16.879,0l0,36.354c0,11.116 3.563,18.245 12.483,18.245c6.721,0 11.113,-4.804 12.896,-9.049c0.55,-1.513 0.963,-3.296 0.963,-5.217l0,-40.333l16.875,0l0,46.779Z" style="fill:#fff;fill-rule:nonzero;"/><path d="M369.996,524.4l0,19.076l16.05,0l0,12.616l-16.05,0l0,29.5c0,8.096 2.191,12.342 8.642,12.342c2.879,0 5.074,-0.404 6.583,-0.821l0.275,12.9c-2.467,0.958 -6.858,1.642 -12.209,1.642c-6.175,0 -11.387,-2.059 -14.545,-5.484c-3.567,-3.841 -5.213,-9.879 -5.213,-18.658l0,-31.421l-9.604,0l0,-12.616l9.604,0l0,-15.096l16.467,-3.98Z" style="fill:#fff;fill-rule:nonzero;"/><path d="M399.492,512.871l17.012,0l0,39.792l0.275,0c2.058,-3.154 4.8,-5.758 8.367,-7.679c3.296,-1.925 7.275,-3.025 11.525,-3.025c11.391,0 23.329,7.55 23.329,28.95l0,39.379l-16.879,0l0,-37.454c0,-9.742 -3.567,-17.017 -12.896,-17.017c-6.588,0 -11.254,4.392 -13.037,9.467c-0.546,1.375 -0.684,3.158 -0.684,5.079l0,39.925l-17.012,0l0,-97.417Z" style="fill:#fff;fill-rule:nonzero;"/><path d="M518.442,610.288l-22.638,-92.475l17.971,0l8.783,41.983c2.33,11.25 4.525,23.05 6.038,32.238l0.271,0c1.512,-9.738 4.121,-20.713 6.725,-32.375l10.012,-41.846l17.7,0l9.196,42.533c2.333,10.975 4.254,21.267 5.625,31.284l0.271,0c1.65,-10.155 3.846,-20.721 6.317,-31.971l9.6,-41.846l17.154,0l-24.834,92.475l-18.112,0l-9.608,-43.496c-2.33,-10.562 -3.975,-19.342 -5.071,-29.358l-0.279,0c-1.646,9.883 -3.43,18.796 -6.171,29.358l-10.704,43.496l-18.246,0Z" style="fill:#fff;fill-rule:nonzero;"/><path d="M652.896,577.634c-11.938,-0.275 -23.325,2.329 -23.325,12.483c0,6.592 4.254,9.609 9.604,9.609c6.721,0 11.662,-4.396 13.171,-9.196c0.412,-1.238 0.55,-2.604 0.55,-3.704l0,-9.192Zm2.192,32.654l-1.092,-7.413l-0.417,0c-4.112,5.217 -11.112,8.921 -19.754,8.921c-13.446,0 -20.992,-9.741 -20.992,-19.891c0,-16.879 14.955,-25.388 39.65,-25.246l0,-1.1c0,-4.392 -1.783,-11.658 -13.579,-11.658c-6.587,0 -13.45,2.054 -17.979,4.937l-3.292,-10.979c4.942,-3.017 13.584,-5.9 24.15,-5.9c21.405,0 27.575,13.583 27.575,28.129l0,24.146c0,6.037 0.28,11.937 0.963,16.054l-15.233,0Z" style="fill:#fff;fill-rule:nonzero;"/><rect x="687.883" y="512.871" width="17.017" height="97.417" style="fill:#fff;fill-rule:nonzero;"/><path d="M765.125,569.813c0.138,-6.175 -2.608,-16.325 -13.862,-16.325c-10.425,0 -14.813,9.462 -15.5,16.325l29.362,0Zm-29.362,11.8c0.408,12.075 9.879,17.283 20.579,17.283c7.82,0 13.446,-1.091 18.525,-3.012l2.466,11.662c-5.762,2.329 -13.721,4.109 -23.32,4.109c-21.68,0 -34.442,-13.305 -34.442,-33.746c0,-18.521 11.25,-35.95 32.654,-35.95c21.679,0 28.813,17.837 28.813,32.521c0,3.154 -0.271,5.625 -0.551,7.133l-44.724,0Z" style="fill:#fff;fill-rule:nonzero;"/><path d="M794.483,594.788c3.838,2.325 11.113,4.8 17.15,4.8c7.409,0 10.7,-3.021 10.7,-7.413c0,-4.525 -2.741,-6.862 -10.975,-9.741c-13.037,-4.525 -18.525,-11.663 -18.387,-19.484c0,-11.8 9.741,-20.991 25.246,-20.991c7.408,0 13.858,1.921 17.7,3.979l-3.292,11.937c-2.883,-1.645 -8.233,-3.841 -14.133,-3.841c-6.038,0 -9.329,2.883 -9.329,7c0,4.25 3.158,6.308 11.662,9.329c12.071,4.387 17.7,10.563 17.838,20.446c0,12.066 -9.467,20.846 -27.167,20.846c-8.096,0 -15.367,-1.921 -20.308,-4.663l3.295,-12.204Z" style="fill:#fff;fill-rule:nonzero;"/><path d="M139.967,705.03c2.196,0.687 4.808,0.825 8.25,0.825c12.65,0 20.35,-6.33 20.35,-17.054c0,-10.317 -7.15,-15.68 -18.838,-15.68c-4.675,0 -7.979,0.417 -9.762,0.829l0,31.08Zm-16.779,-43.042c6.187,-1.104 14.575,-1.925 25.854,-1.925c12.375,0 21.316,2.612 27.225,7.562c5.504,4.538 9.079,11.825 9.079,20.488c0,8.8 -2.75,15.954 -7.838,20.904c-6.879,6.738 -17.329,10.042 -29.291,10.042c-3.163,0 -5.913,-0.138 -8.25,-0.688l0,35.067l-16.779,0l0,-91.45Z" style="fill:#fff;fill-rule:nonzero;"/><path d="M197.708,708.055c0,-9.079 -0.133,-15.679 -0.546,-21.588l14.576,0l0.687,12.65l0.413,0c3.3,-9.35 11.141,-14.167 18.429,-14.167c1.65,0 2.612,0.138 3.987,0.413l0,15.817c-1.512,-0.28 -3.025,-0.413 -5.087,-0.413c-7.98,0 -13.617,5.088 -15.129,12.788c-0.275,1.512 -0.413,3.3 -0.413,5.087l0,34.796l-16.917,0l0,-45.383Z" style="fill:#fff;fill-rule:nonzero;"/><path d="M246.658,753.438l0,-66.971l16.917,0l0,66.971l-16.917,0Zm18.017,-85.679c0,4.954 -3.713,9.079 -9.629,9.079c-5.638,0 -9.35,-4.125 -9.35,-9.079c0,-5.225 3.85,-9.213 9.487,-9.213c5.779,0 9.355,3.988 9.492,9.213Z" style="fill:#fff;fill-rule:nonzero;"/><path d="M283.783,753.438l0,-54.321l-9.079,0l0,-12.65l9.079,0l0,-2.891c0,-8.663 2.338,-17.326 8.113,-22.826c4.95,-4.675 11.55,-6.466 17.467,-6.466c4.537,0 8.112,0.825 10.725,1.65l-1.1,13.062c-1.925,-0.687 -4.125,-1.237 -7.288,-1.237c-8.387,0 -11.138,7.017 -11.138,15.266l0,3.442l14.575,0l0,12.65l-14.437,0l0,54.321l-16.917,0Z" style="fill:#fff;fill-rule:nonzero;"/><path d="M336.446,686.467l11.962,35.892c1.375,4.125 2.888,9.212 3.85,12.925l0.413,0c0.962,-3.713 2.2,-8.8 3.575,-13.063l10.454,-35.754l18.013,0l-16.78,45.654c-9.208,25.025 -15.4,36.167 -23.237,43.046c-6.738,5.771 -13.617,7.975 -17.742,8.525l-3.85,-14.166c2.888,-0.688 6.325,-2.2 9.763,-4.676c3.3,-2.062 7.016,-6.05 9.354,-10.587c0.687,-1.242 0.962,-2.2 0.962,-3.029c0,-0.688 -0.137,-1.65 -0.825,-3.3l-24.616,-61.467l18.704,0Z" style="fill:#fff;fill-rule:nonzero;"/><path d="M392.133,737.759c3.713,2.337 11,4.954 17.05,4.954c7.43,0 10.73,-3.167 10.73,-7.567c0,-4.541 -2.755,-6.737 -11.005,-9.766c-13.062,-4.396 -18.425,-11.55 -18.425,-19.525c0,-11.825 9.763,-20.905 25.3,-20.905c7.43,0 13.892,1.788 17.884,3.988l-3.438,11.829c-2.754,-1.65 -8.254,-3.854 -14.167,-3.854c-6.054,0 -9.354,3.029 -9.354,7.154c0,4.263 3.163,6.188 11.692,9.35c12.237,4.267 17.742,10.45 17.879,20.354c0,12.242 -9.491,21.042 -27.233,21.042c-8.113,0 -15.4,-1.925 -20.354,-4.675l3.441,-12.379Z" style="fill:#fff;fill-rule:nonzero;"/><path d="M493.887,713.28c0,-1.646 -0.137,-3.163 -0.545,-4.538c-1.792,-6.187 -6.604,-10.862 -13.754,-10.862c-9.492,0 -16.505,8.25 -16.505,21.866c0,11.413 5.78,20.625 16.367,20.625c6.325,0 11.825,-4.125 13.75,-10.316c0.55,-1.646 0.687,-3.988 0.687,-5.909l0,-10.866Zm16.917,30.391c0,14.025 -2.887,24.067 -9.9,30.392c-6.875,6.187 -16.641,8.112 -25.854,8.112c-8.525,0 -17.604,-1.925 -23.379,-5.362l3.712,-12.787c4.263,2.474 11.413,5.087 19.529,5.087c11,0 19.251,-5.775 19.251,-20.217l0,-5.775l-0.276,0c-3.849,5.913 -10.587,9.9 -19.524,9.9c-16.642,0 -28.467,-13.75 -28.467,-32.725c0,-22.008 14.3,-35.346 30.392,-35.346c10.312,0 16.224,4.955 19.391,10.45l0.275,0l0.688,-8.933l14.712,0c-0.275,4.533 -0.55,10.038 -0.55,19.25l0,37.954Z" style="fill:#fff;fill-rule:nonzero;"/><path d="M542.146,720.017c0,12.929 6.458,22.696 16.637,22.696c9.63,0 16.367,-9.358 16.367,-22.967c0,-10.454 -4.675,-22.554 -16.229,-22.554c-11.963,0 -16.775,11.688 -16.775,22.825Zm50.467,-0.687c0,24.616 -17.326,35.62 -34.38,35.62c-18.837,0 -33.55,-12.924 -33.55,-34.516c0,-22.004 14.434,-35.484 34.65,-35.484c19.942,0 33.28,14.026 33.28,34.38Z" style="fill:#fff;fill-rule:nonzero;"/><rect x="606.492" y="655.796" width="16.917" height="97.642" style="fill:#fff;fill-rule:nonzero;"/><path d="M140.1,884.801c2.338,0.412 5.913,0.412 9.35,0.412c22.004,0.138 35.067,-12.104 35.067,-35.617c0.141,-20.354 -11.688,-32.183 -32.863,-32.183c-5.366,0 -9.079,0.417 -11.554,0.967l0,66.421Zm-16.912,-78.663c7.558,-1.096 16.912,-1.925 26.949,-1.925c17.33,0 29.159,3.579 37.68,10.729c9.079,7.288 14.579,18.425 14.579,34.104c0,16.638 -5.638,28.879 -14.438,36.855c-9.212,8.387 -23.933,12.654 -41.945,12.654c-9.767,0 -17.192,-0.555 -22.825,-1.242l0,-91.175Z" style="fill:#fff;fill-rule:nonzero;"/><path d="M257.8,857.021c0.142,-6.187 -2.612,-16.366 -13.887,-16.366c-10.45,0 -14.85,9.491 -15.538,16.366l29.425,0Zm-29.425,11.825c0.408,12.104 9.767,17.329 20.625,17.329c7.842,0 13.342,-1.237 18.567,-3.025l2.475,11.551c-5.775,2.479 -13.75,4.266 -23.379,4.266c-21.726,0 -34.517,-13.342 -34.517,-33.833c0,-18.567 11.275,-36.029 32.733,-36.029c21.725,0 28.875,17.879 28.875,32.591c0,3.163 -0.275,5.642 -0.546,7.15l-44.833,0Z" style="fill:#fff;fill-rule:nonzero;"/><path d="M382.925,894.98c-3.987,1.921 -12.792,4.125 -24.067,4.125c-29.429,0 -47.304,-18.43 -47.304,-46.759c0,-30.529 21.313,-48.958 49.646,-48.958c11.138,0 18.975,2.342 22.413,4.125l-3.575,13.479c-4.4,-1.925 -10.592,-3.579 -18.151,-3.579c-18.845,0 -32.458,11.829 -32.458,34.108c0,20.492 11.829,33.417 32.321,33.417c6.737,0 13.888,-1.375 18.425,-3.3l2.75,13.342Z" style="fill:#fff;fill-rule:nonzero;"/><path d="M403.683,830.617l11.963,35.892c1.375,4.129 2.887,9.212 3.85,12.929l0.417,0c0.958,-3.717 2.2,-8.8 3.57,-13.067l10.454,-35.754l18.013,0l-16.775,45.654c-9.213,25.034 -15.404,36.171 -23.237,43.046c-6.742,5.775 -13.617,7.975 -17.742,8.525l-3.854,-14.162c2.887,-0.688 6.325,-2.205 9.766,-4.675c3.3,-2.063 7.013,-6.05 9.35,-10.588c0.688,-1.237 0.963,-2.204 0.963,-3.029c0,-0.687 -0.138,-1.646 -0.825,-3.3l-24.617,-61.471l18.704,0Z" style="fill:#fff;fill-rule:nonzero;"/><path d="M461.708,850.555c0,-7.696 -0.275,-14.163 -0.554,-19.938l14.442,0l0.829,9.9l0.408,0c3.167,-5.225 9.217,-11.412 20.63,-11.412c8.804,0 15.679,4.95 18.562,12.379l0.279,0c2.338,-3.717 5.088,-6.467 8.113,-8.392c3.85,-2.612 8.112,-3.987 13.754,-3.987c11,0 22.279,7.562 22.279,29.016l0,39.467l-16.504,0l0,-36.988c0,-11.141 -3.85,-17.741 -11.963,-17.741c-5.779,0 -10.041,4.125 -11.829,8.937c-0.55,1.513 -0.829,3.713 -0.829,5.638l0,40.154l-16.5,0l0,-38.779c0,-9.35 -3.713,-15.95 -11.55,-15.95c-6.329,0 -10.587,4.95 -12.242,9.487c-0.545,1.788 -0.825,3.713 -0.825,5.642l0,39.6l-16.5,0l0,-47.033Z" style="fill:#fff;fill-rule:nonzero;"/><path d="M578.308,852.209c0,-9.079 -0.141,-15.679 -0.554,-21.592l14.579,0l0.688,12.65l0.412,0c3.3,-9.35 11.138,-14.162 18.425,-14.162c1.655,0 2.613,0.137 3.988,0.416l0,15.809c-1.513,-0.271 -3.021,-0.409 -5.083,-0.409c-7.98,0 -13.617,5.088 -15.13,12.788c-0.279,1.512 -0.412,3.3 -0.412,5.087l0,34.792l-16.913,0l0,-45.379Z" style="fill:#fff;fill-rule:nonzero;"/><path d="M687.212,877.513c0,7.975 0.28,14.575 0.55,20.075l-14.712,0l-0.825,-10.037l-0.413,0c-2.887,4.674 -9.487,11.554 -21.591,11.554c-12.1,0 -23.242,-7.288 -23.242,-29.155l0,-39.333l16.917,0l0,36.442c0,11.141 3.575,18.292 12.516,18.292c6.871,0 11.276,-4.676 12.921,-9.08c0.688,-1.371 0.967,-3.3 0.967,-5.225l0,-40.429l16.912,0l0,46.896Z" style="fill:#fff;fill-rule:nonzero;"/></g></g></svg>